<svg width="504" height="332" viewBox="0 0 504 332" fill="none" xmlns="http://www.w3.org/2000/svg">
  <g filter="url(#filter0_d_2575_59553)">
    <path
      d="M36 24C36 17.3726 41.3726 12 48 12H456C462.627 12 468 17.3726 468 24V260C468 266.627 462.627 272 456 272H48C41.3726 272 36 266.627 36 260V24Z"
      fill="white" />
    <line x1="56.5" y1="62.5" x2="447.5" y2="62.5" stroke="#F2F4F7" stroke-linecap="round" />
    <line x1="56.5" y1="97" x2="447.5" y2="97" stroke="#F2F4F7" stroke-linecap="round" />
    <line x1="56.5" y1="129" x2="447.5" y2="129" stroke="#F2F4F7" stroke-linecap="round" />
    <line x1="56.5" y1="161" x2="447.5" y2="161" stroke="#F2F4F7" stroke-linecap="round" />
    <line x1="56.5" y1="193" x2="447.5" y2="193" stroke="#F2F4F7" stroke-linecap="round" />
    <line x1="56.5" y1="225" x2="447.5" y2="225" stroke="#F2F4F7" stroke-linecap="round" />
  </g>
  <defs>
    <filter id="filter0_d_2575_59553" x="0" y="0" width="504" height="332" filterUnits="userSpaceOnUse"
      color-interpolation-filters="sRGB">
      <feFlood flood-opacity="0" result="BackgroundImageFix" />
      <feColorMatrix in="SourceAlpha" type="matrix" values="0 0 0 0 0 0 0 0 0 0 0 0 0 0 0 0 0 0 127 0"
        result="hardAlpha" />
      <feMorphology radius="12" operator="erode" in="SourceAlpha" result="effect1_dropShadow_2575_59553" />
      <feOffset dy="24" />
      <feGaussianBlur stdDeviation="24" />
      <feComposite in2="hardAlpha" operator="out" />
      <feColorMatrix type="matrix" values="0 0 0 0 0.0625882 0 0 0 0 0.0926346 0 0 0 0 0.15702 0 0 0 0.18 0" />
      <feBlend mode="normal" in2="BackgroundImageFix" result="effect1_dropShadow_2575_59553" />
      <feBlend mode="normal" in="SourceGraphic" in2="effect1_dropShadow_2575_59553" result="shape" />
    </filter>
    <linearGradient id="paint0_linear_2575_59553" x1="196" y1="0" x2="196" y2="127" gradientUnits="userSpaceOnUse">
      <stop />
      <stop offset="1" stop-opacity="0" />
    </linearGradient>
  </defs>
</svg>