<svg width="192" height="192" viewBox="0 0 192 192" fill="none" xmlns="http://www.w3.org/2000/svg">
  <g filter="url(#filter0_b_2575_59595)">
    <path
      d="M0 12C0 5.37258 5.37258 0 12 0H180C186.627 0 192 5.37258 192 12V180C192 186.627 186.627 192 180 192H12C5.37258 192 0 186.627 0 180V12Z"
      fill="white" fill-opacity="0.9" />
    <path
      d="M96 20C105.98 20 115.863 21.9658 125.084 25.7852C134.305 29.6045 142.683 35.2026 149.74 42.2599C156.797 49.3171 162.395 57.6953 166.215 66.9161C170.034 76.1368 172 86.0196 172 96C172 105.98 170.034 115.863 166.215 125.084C162.395 134.305 156.797 142.683 149.74 149.74C142.683 156.797 134.305 162.395 125.084 166.215C115.863 170.034 105.98 172 96 172C86.0195 172 76.1368 170.034 66.916 166.215C57.6953 162.395 49.3171 156.797 42.2599 149.74C35.2026 142.683 29.6045 134.305 25.7851 125.084C21.9658 115.863 20 105.98 20 96C20 86.0195 21.9658 76.1368 25.7852 66.916C29.6045 57.6953 35.2027 49.3171 42.2599 42.2599C49.3172 35.2026 57.6954 29.6045 66.9161 25.7851C76.1369 21.9658 86.0196 20 96.0001 20L96 20Z"
      stroke="#F2F4F7" stroke-width="8" stroke-linecap="round" stroke-linejoin="round" />
    <path
      d="M96 32C104.405 32 112.727 33.6554 120.492 36.8717C128.257 40.088 135.312 44.8022 141.255 50.7452C147.198 56.6881 151.912 63.7434 155.128 71.5083C158.345 79.2731 160 87.5954 160 96C160 104.405 158.345 112.727 155.128 120.492C151.912 128.257 147.198 135.312 141.255 141.255C135.312 147.198 128.257 151.912 120.492 155.128C112.727 158.345 104.405 160 96 160C87.5954 160 79.2731 158.345 71.5082 155.128C63.7434 151.912 56.6881 147.198 50.7451 141.255C44.8022 135.312 40.088 128.257 36.8717 120.492C33.6554 112.727 32 104.405 32 96C32 87.5954 33.6554 79.2731 36.8717 71.5082C40.088 63.7434 44.8022 56.6881 50.7452 50.7451C56.6881 44.8022 63.7435 40.088 71.5083 36.8717C79.2731 33.6554 87.5954 32 96 32L96 32Z"
      stroke="#F2F4F7" stroke-width="8" stroke-linecap="round" stroke-linejoin="round" />
    <path
      d="M96 44C102.829 44 109.591 45.345 115.9 47.9583C122.208 50.5715 127.941 54.4018 132.77 59.2305C137.598 64.0591 141.428 69.7915 144.042 76.1005C146.655 82.4094 148 89.1713 148 96C148 102.829 146.655 109.591 144.042 115.9C141.428 122.208 137.598 127.941 132.77 132.77C127.941 137.598 122.208 141.428 115.9 144.042C109.591 146.655 102.829 148 96 148C89.1712 148 82.4094 146.655 76.1004 144.042C69.7915 141.428 64.0591 137.598 59.2304 132.77C54.4018 127.941 50.5715 122.208 47.9583 115.9C45.345 109.591 44 102.829 44 96C44 89.1712 45.345 82.4094 47.9583 76.1004C50.5715 69.7915 54.4018 64.0591 59.2305 59.2304C64.0591 54.4018 69.7916 50.5715 76.1005 47.9583C82.4094 45.345 89.1713 44 96 44L96 44Z"
      stroke="#F2F4F7" stroke-width="8" stroke-linecap="round" stroke-linejoin="round" />
  </g>
  <defs>
    <filter id="filter0_b_2575_59595" x="-16" y="-16" width="224" height="224" filterUnits="userSpaceOnUse"
      color-interpolation-filters="sRGB">
      <feFlood flood-opacity="0" result="BackgroundImageFix" />
      <feGaussianBlur in="BackgroundImageFix" stdDeviation="8" />
      <feComposite in2="SourceAlpha" operator="in" result="effect1_backgroundBlur_2575_59595" />
      <feBlend mode="normal" in="SourceGraphic" in2="effect1_backgroundBlur_2575_59595" result="shape" />
    </filter>
  </defs>
</svg>